<?xml version="1.0" standalone="no"?>
<!DOCTYPE svg PUBLIC "-//W3C//DTD SVG 20010904//EN"
 "http://www.w3.org/TR/2001/REC-SVG-20010904/DTD/svg10.dtd">
<svg version="1.0" xmlns="http://www.w3.org/2000/svg"
 width="16.000000pt" height="16.000000pt" viewBox="0 0 16.000000 16.000000"
 preserveAspectRatio="xMidYMid meet">
<metadata>
Created by potrace 1.11, written by Peter Selinger 2001-2013
</metadata>
<g transform="translate(0.000000,16.000000) scale(0.000701,-0.000701)"
fill="#000000" stroke="none">
<path d="M1769 22826 c-2 -2 -33 -6 -69 -10 -36 -3 -75 -8 -86 -10 -12 -2 -37
-7 -55 -10 -60 -9 -161 -37 -254 -68 -490 -166 -892 -523 -1114 -990 -91 -191
-138 -342 -171 -558 -17 -110 -18 -536 -18 -9755 0 -5730 3 -9668 9 -9710 8
-63 13 -99 24 -160 9 -53 18 -87 42 -170 122 -425 401 -807 770 -1055 88 -59
274 -159 368 -197 78 -32 278 -89 345 -98 24 -4 47 -8 50 -10 4 -2 38 -8 76
-12 38 -4 4423 -8 9744 -8 l9675 0 130 24 c544 99 1000 404 1299 868 25 39 46
76 46 81 0 6 3 12 8 14 8 4 58 105 97 198 53 126 98 288 121 430 3 19 8 46 12
60 4 14 8 4370 9 9680 3 10315 6 9737 -42 9959 -57 269 -175 525 -349 755 -78
102 -250 278 -341 348 -229 174 -518 310 -775 363 -78 16 -92 19 -200 34 -61
9 -19341 16 -19351 7z"/>
</g>
</svg>
