<?xml version="1.0" encoding="utf-8"?>
<!-- Generator: Adobe Illustrator 14.0.0, SVG Export Plug-In . SVG Version: 6.00 Build 43363)  -->
<!DOCTYPE svg PUBLIC "-//W3C//DTD SVG 1.1//EN" "http://www.w3.org/Graphics/SVG/1.1/DTD/svg11.dtd">
<svg version="1.1" id="Calque_1" xmlns="http://www.w3.org/2000/svg" xmlns:xlink="http://www.w3.org/1999/xlink" x="0px" y="0px"
	 width="24px" height="24px" viewBox="0 0 24 24" enable-background="new 0 0 24 24" xml:space="preserve">
<g>
	<path fill="#512DA8" d="M17.793,11.893v0.214c0,2.481,1.376,4.495,3.072,4.495h0.031c1.696,0,3.071-2.014,3.071-4.495v-0.214
		c0-2.482-1.375-4.494-3.071-4.494h-0.031C19.169,7.399,17.793,9.411,17.793,11.893z"/>
	<path fill="#512DA8" d="M15.408,12.107v-0.214c0-1.898,0.688-3.562,1.72-4.494H2.964c-1.627,0-2.946,2.012-2.946,4.494v0.214
		c0,2.481,1.318,4.495,2.946,4.495h14.164C16.098,15.669,15.408,14.006,15.408,12.107z"/>
</g>
</svg>
