<?xml version="1.0" encoding="utf-8"?>
<!-- Generator: Adobe Illustrator 14.0.0, SVG Export Plug-In . SVG Version: 6.00 Build 43363)  -->
<!DOCTYPE svg PUBLIC "-//W3C//DTD SVG 1.1//EN" "http://www.w3.org/Graphics/SVG/1.1/DTD/svg11.dtd">
<svg version="1.1" id="Calque_1" xmlns="http://www.w3.org/2000/svg" xmlns:xlink="http://www.w3.org/1999/xlink" x="0px" y="0px"
	 width="24px" height="24px" viewBox="0 0 24 24" enable-background="new 0 0 24 24" xml:space="preserve">
<g>
	<path d="M19.548,10.14h-1.572c-0.254,0-0.461-0.139-0.559-0.373c-0.097-0.233-0.048-0.479,0.131-0.658l1.112-1.112
		c0.163-0.163,0.253-0.381,0.253-0.612c0-0.231-0.09-0.449-0.253-0.612l-1.418-1.417c-0.327-0.327-0.896-0.328-1.224,0l-1.112,1.111
		c-0.179,0.178-0.425,0.228-0.657,0.131c-0.234-0.097-0.374-0.305-0.374-0.558V4.467c0-0.477-0.388-0.865-0.863-0.865h-2.006
		c-0.478,0-0.866,0.388-0.866,0.865v1.573c0,0.253-0.139,0.461-0.372,0.558c-0.233,0.097-0.48,0.047-0.659-0.131L7.997,5.356
		c-0.327-0.328-0.897-0.327-1.224,0L5.355,6.773C5.192,6.936,5.102,7.154,5.102,7.385c0,0.231,0.09,0.449,0.253,0.612l1.112,1.112
		c0.178,0.179,0.227,0.425,0.131,0.658c-0.096,0.234-0.305,0.373-0.558,0.373H4.467c-0.477,0-0.865,0.389-0.865,0.866v2.004
		c0,0.478,0.388,0.865,0.865,0.865h1.573c0.253,0,0.461,0.139,0.558,0.374c0.097,0.232,0.047,0.479-0.131,0.657l-1.112,1.112
		c-0.164,0.164-0.253,0.381-0.253,0.611c0,0.232,0.09,0.449,0.253,0.612l1.417,1.419c0.327,0.325,0.897,0.327,1.224,0l1.112-1.113
		c0.179-0.179,0.425-0.228,0.659-0.13c0.233,0.097,0.372,0.304,0.372,0.557v1.573c0,0.478,0.389,0.865,0.866,0.865h2.004
		c0.477,0,0.865-0.388,0.865-0.865v-1.573c0-0.253,0.14-0.46,0.373-0.557c0.233-0.098,0.479-0.049,0.657,0.13l1.112,1.113
		c0.327,0.327,0.897,0.325,1.225,0l1.417-1.419c0.164-0.163,0.254-0.38,0.254-0.612c0-0.23-0.09-0.447-0.254-0.611l-1.111-1.112
		c-0.179-0.179-0.228-0.425-0.131-0.657c0.097-0.235,0.305-0.374,0.559-0.374h1.572c0.478,0,0.865-0.388,0.865-0.863v-2.006
		C20.413,10.528,20.025,10.14,19.548,10.14z M12.008,15.691c-2.031,0-3.684-1.653-3.684-3.684c0-2.031,1.652-3.684,3.684-3.684
		c2.03,0,3.685,1.652,3.685,3.684C15.692,14.038,14.038,15.691,12.008,15.691z"/>
</g>
</svg>
