<?xml version="1.0" encoding="utf-8"?>
<!-- Generator: Adobe Illustrator 21.0.0, SVG Export Plug-In . SVG Version: 6.00 Build 0)  -->
<svg version="1.1" id="Calque_1" xmlns="http://www.w3.org/2000/svg" xmlns:xlink="http://www.w3.org/1999/xlink" x="0px" y="0px"
	 viewBox="0 0 24 24" style="enable-background:new 0 0 24 24;" xml:space="preserve">
<g>
	<path d="M21.1,16.5H2.9c-1.1,0-2-0.9-2-2V9.4c0-1.1,0.9-2,2-2h18.2c1.1,0,2,0.9,2,2v5.1C23,15.7,22.2,16.5,21.1,16.5z
		 M2.9,8.6C2.5,8.6,2.1,9,2.1,9.4v5.1c0,0.5,0.4,0.8,0.8,0.8h18.2c0.5,0,0.8-0.4,0.8-0.8V9.4c0-0.5-0.4-0.8-0.8-0.8H2.9z"/>
	<circle cx="19.2" cy="10.6" r="1.1"/>
	<circle cx="16" cy="10.6" r="1.1"/>
	<circle cx="12.8" cy="10.6" r="1.1"/>
	<circle cx="5.6" cy="12" r="1.7"/>
	<circle cx="19.2" cy="13.3" r="1.1"/>
	<circle cx="16" cy="13.3" r="1.1"/>
	<circle cx="12.8" cy="13.3" r="1.1"/>
</g>
</svg>
