<?xml version="1.0" encoding="utf-8"?>
<!-- Generator: Adobe Illustrator 14.0.0, SVG Export Plug-In . SVG Version: 6.00 Build 43363)  -->
<!DOCTYPE svg PUBLIC "-//W3C//DTD SVG 1.1//EN" "http://www.w3.org/Graphics/SVG/1.1/DTD/svg11.dtd">
<svg version="1.1" id="Calque_1" xmlns="http://www.w3.org/2000/svg" xmlns:xlink="http://www.w3.org/1999/xlink" x="0px" y="0px"
	 width="24px" height="24px" viewBox="0 0 24 24" enable-background="new 0 0 24 24" xml:space="preserve">
<g>
	<g>
		<path fill="#512DA8" d="M20.275,19.854c0,2.288-1.858,4.146-4.146,4.146H4.148C1.857,24,0,22.143,0,19.854V7.871
			c0-2.29,1.857-4.146,4.148-4.146h4.313c0.259,0,0.461,0.202,0.461,0.46v0.922c0,0.258-0.202,0.46-0.461,0.46H4.148
			c-1.268,0-2.305,1.037-2.305,2.304v11.983c0,1.266,1.037,2.302,2.305,2.302h11.981c1.267,0,2.304-1.036,2.304-2.302v-4.283
			c0-0.258,0.2-0.461,0.461-0.461h0.921c0.26,0,0.461,0.203,0.461,0.461V19.854z"/>
	</g>
	<g>
		<path fill="#512DA8" d="M9.092,13.76c0-0.303,0.125-0.598,0.331-0.805l3.073-3.073c-0.726-1.048-1.111-2.302-1.111-3.575
			C11.385,2.822,14.207,0,17.692,0C21.179,0,24,2.823,24,6.307c0,3.484-2.821,6.306-6.308,6.306c-1.271,0-2.525-0.385-3.574-1.109
			l-3.073,3.062c-0.206,0.215-0.502,0.342-0.806,0.342C9.611,14.908,9.092,14.387,9.092,13.76z M13.679,6.307
			c0,2.212,1.802,4.012,4.014,4.012c2.213,0,4.014-1.801,4.014-4.012c0-2.213-1.801-4.014-4.014-4.014
			C15.48,2.293,13.681,4.094,13.679,6.307z"/>
	</g>
</g>
</svg>
