<?xml version="1.0" encoding="utf-8"?>
<!-- Generator: Adobe Illustrator 21.0.0, SVG Export Plug-In . SVG Version: 6.00 Build 0)  -->
<svg version="1.1" id="Calque_1" xmlns="http://www.w3.org/2000/svg" xmlns:xlink="http://www.w3.org/1999/xlink" x="0px" y="0px"
	 viewBox="0 0 24 24" style="enable-background:new 0 0 24 24;" xml:space="preserve">
<path d="M21.1,21H2.9c-1,0-1.9-0.8-1.9-1.9V4.9C1,3.8,1.8,3,2.9,3h18.2c1,0,1.9,0.8,1.9,1.9v14.2C23,20.2,22.2,21,21.1,21z M3,19h18
	V5H3V19z"/>
<path d="M16.6,17.4c-0.2,0-0.4-0.1-0.6-0.2l-2.2-2.2c-0.8,0.5-1.7,0.8-2.6,0.8c-2.5,0-4.6-2-4.6-4.6c0-2.5,2-4.6,4.6-4.6
	c2.5,0,4.6,2,4.6,4.6c0,0.9-0.3,1.8-0.8,2.6l2.2,2.2c0.1,0.1,0.2,0.4,0.2,0.6C17.4,17,17,17.4,16.6,17.4z M11.2,8.3
	c-1.6,0-2.9,1.3-2.9,2.9c0,1.6,1.3,2.9,2.9,2.9c1.6,0,2.9-1.3,2.9-2.9C14.1,9.6,12.8,8.3,11.2,8.3z"/>
</svg>
