<?xml version="1.0" encoding="utf-8"?>
<!-- Generator: Adobe Illustrator 21.0.0, SVG Export Plug-In . SVG Version: 6.00 Build 0)  -->
<svg version="1.1" id="Calque_1" xmlns="http://www.w3.org/2000/svg" xmlns:xlink="http://www.w3.org/1999/xlink" x="0px" y="0px"
	 viewBox="0 0 24 24" style="enable-background:new 0 0 24 24;" xml:space="preserve">
<path d="M21.8,13.7H8.1c-0.9,0-1.7-0.8-1.7-1.7s0.8-1.7,1.7-1.7h13.7c0.9,0,1.7,0.8,1.7,1.7S22.8,13.7,21.8,13.7z"/>
<path d="M4.3,17.6c-1.1,0-2.2-0.3-3.1-0.9c-0.8-0.5-1-1.6-0.5-2.4c0.5-0.8,1.6-1,2.4-0.5c0.4,0.2,0.8,0.4,1.2,0.4
	c1.2,0,2.1-1,2.1-2.1s-1-2.1-2.1-2.1c-0.4,0-0.8,0.1-1.2,0.4c-0.8,0.5-1.8,0.3-2.4-0.5C0.2,9,0.4,7.9,1.2,7.4c0.9-0.6,2-0.9,3.1-0.9
	c3.1,0,5.6,2.5,5.6,5.6S7.4,17.6,4.3,17.6z"/>
</svg>
