<?xml version="1.0" encoding="utf-8"?>
<!-- Generator: Adobe Illustrator 21.0.0, SVG Export Plug-In . SVG Version: 6.00 Build 0)  -->
<svg version="1.1" id="Calque_1" xmlns="http://www.w3.org/2000/svg" xmlns:xlink="http://www.w3.org/1999/xlink" x="0px" y="0px"
	 viewBox="0 0 24 24" style="enable-background:new 0 0 24 24;" xml:space="preserve">
<path d="M1.6,11.4c1.5,0,1.7-0.8,1.7-1.6c0-0.6-0.1-1.2-0.2-1.8C3.1,7.5,3,7,3,6.4c0-1.9,1.3-2.7,3-2.7h0.4v1.2H6.1
	c-1.2,0-1.7,0.7-1.7,1.8c0,0.5,0.1,1,0.1,1.5c0.1,0.5,0.1,1,0.1,1.6c0,1.3-0.6,2-1.5,2.3l0,0C4,12.3,4.6,13,4.6,14.4
	c0,0.6-0.1,1.1-0.1,1.6c-0.1,0.5-0.1,1-0.1,1.5c0,1.2,0.5,1.8,1.7,1.8h0.4v1.2H6c-1.7,0-3-0.8-3-2.9c0-0.6,0.1-1.2,0.2-1.7
	c0.1-0.6,0.2-1.1,0.2-1.7c0-0.7-0.2-1.6-1.7-1.6v-1.2H1.6z"/>
<path d="M22.4,12.5c-1.5,0-1.7,0.9-1.7,1.6c0,0.6,0.1,1.1,0.2,1.7c0.1,0.6,0.2,1.2,0.2,1.7c0,2.1-1.3,2.9-3,2.9h-0.4v-1.2h0.4
	c1.2,0,1.7-0.7,1.7-1.8c0-0.5-0.1-1-0.1-1.5c-0.1-0.5-0.2-1-0.2-1.6c0-1.3,0.6-2.1,1.5-2.3l0,0c-0.9-0.3-1.5-0.9-1.5-2.3
	c0-0.6,0.1-1.1,0.2-1.6s0.1-1,0.1-1.5c0-1.1-0.4-1.8-1.7-1.8h-0.4V3.6H18c1.8,0,3.1,0.8,3.1,2.7c0,0.6-0.1,1.2-0.2,1.7
	c-0.1,0.6-0.2,1.2-0.2,1.8c0,0.7,0.2,1.6,1.7,1.6V12.5z"/>
<path d="M6.8,12c0-0.7,0.5-1.2,1.2-1.2s1.1,0.5,1.1,1.2s-0.4,1.2-1.2,1.2C7.3,13.2,6.8,12.7,6.8,12z"/>
<path d="M10.8,12c0-0.7,0.5-1.2,1.2-1.2s1.1,0.5,1.1,1.2s-0.4,1.2-1.2,1.2C11.3,13.2,10.8,12.7,10.8,12z"/>
<path d="M14.9,12c0-0.7,0.5-1.2,1.2-1.2s1.1,0.5,1.1,1.2s-0.4,1.2-1.2,1.2C15.3,13.2,14.9,12.7,14.9,12z"/>
</svg>
