<?xml version="1.0" encoding="utf-8"?>
<!-- Generator: Adobe Illustrator 21.0.0, SVG Export Plug-In . SVG Version: 6.00 Build 0)  -->
<svg version="1.1" id="Calque_1" xmlns="http://www.w3.org/2000/svg" xmlns:xlink="http://www.w3.org/1999/xlink" x="0px" y="0px"
	 viewBox="0 0 60 60" style="enable-background:new 0 0 60 60;" xml:space="preserve">
<style type="text/css">
	.st0{fill:#FFFFFF;}
</style>
<g>
	<g>
		<g>
			<g>
				<path class="st0" d="M42.8,34c-2.6,0-4.2,1.6-4.2,4.2c0,2.8,1.4,4.2,4.2,4.2H47v-4.2C47,35.6,45.4,34,42.8,34z M45.7,41.2h-3
					c-2.1,0-3-0.8-3-3c0-1.9,1.1-3,3-3c1.9,0,3,1.1,3,3V41.2z"/>
				<path class="st0" d="M28,34c-2.3,0-4.2,1.9-4.2,4.2s1.9,4.2,4.2,4.2h2.4v-1.3H28c-1.4,0-2.6-1-2.9-2.3h7.1v-0.6
					C32.2,35.9,30.3,34,28,34z M28,35.2c1.4,0,2.6,1,2.9,2.4h-5.8C25.4,36.2,26.6,35.2,28,35.2z"/>
				<path class="st0" d="M57.6,37.6h-2.3c-0.7,0-1.2-0.5-1.2-1.2c0-0.7,0.5-1.2,1.2-1.2h4.2V34h-4.2c-1.3,0-2.4,1.1-2.4,2.4
					s1.1,2.4,2.4,2.4h2.3c0.7,0,1.2,0.5,1.2,1.2c0,0.7-0.5,1.2-1.2,1.2h-4.2v1.3h4.2c1.3,0,2.4-1.1,2.4-2.4S58.9,37.6,57.6,37.6z"/>
				<path class="st0" d="M18.6,34c-2.6,0-4.2,1.6-4.2,4.2v3.3v1v4.1h1.3v-4.1h3c2.8,0,4.2-1.4,4.2-4.2C22.8,35.6,21.2,34,18.6,34z
					 M18.6,41.2h-3v-3c0-1.9,1.1-3,3-3c1.9,0,3,1.1,3,3C21.5,40.4,20.7,41.2,18.6,41.2z"/>
				<path class="st0" d="M52.2,41.2c0,0-0.8,0-1.6-0.4c-0.9-0.5-1.4-1.4-1.4-2.6v-8.4H48v8.3c0,2.2,1.2,3.2,2.1,3.7
					c1,0.5,2,0.5,2.1,0.5h0.1v-1.1v-0.1H52.2z"/>
				<path class="st0" d="M34.5,29.9h-1.3v8.3c0,2.2,1.2,3.2,2.1,3.7c1,0.5,2,0.5,2.1,0.5h0.1v-1.3h-0.1c0,0-0.8,0-1.6-0.4
					c-0.9-0.5-1.4-1.4-1.4-2.6v-4.8h3.1v-1.3h-3.1L34.5,29.9L34.5,29.9z"/>
			</g>
		</g>
	</g>
	<path class="st0" d="M31.2,13.4c0,0-3.9,0-8.4,0c-2.1,0-4,0.3-5.4,1.1c-2.2,1.3-3.5,3.7-3.5,7.2c0,6.4,4.2,8.9,8.5,8.9
		c4.7,0,8.9-2.3,8.9-9.3C31.2,15.9,31.2,13.4,31.2,13.4z"/>
	<path class="st0" d="M0,26.3c0,0,0,2.9,0,6.2c0,1.5,0.2,2.9,0.8,4c0.9,1.6,2.7,2.6,5.4,2.6c4.8,0,6.6-3.1,6.6-6.2
		c0-3.5-1.7-6.6-6.9-6.6C1.9,26.3,0,26.3,0,26.3z"/>
	<path class="st0" d="M12.1,46.5c0,0,0-1.1,0-2.4c0-0.6-0.1-1.1-0.3-1.5c-0.4-0.6-1-1-2-1c-1.8,0-2.5,1.2-2.5,2.4
		c0,1.3,0.7,2.5,2.6,2.5C11.4,46.5,12.1,46.5,12.1,46.5z"/>
</g>
</svg>
