<?xml version="1.0" encoding="utf-8"?>
<!-- Generator: Adobe Illustrator 14.0.0, SVG Export Plug-In . SVG Version: 6.00 Build 43363)  -->
<!DOCTYPE svg PUBLIC "-//W3C//DTD SVG 1.1//EN" "http://www.w3.org/Graphics/SVG/1.1/DTD/svg11.dtd">
<svg version="1.1" id="Calque_1" xmlns="http://www.w3.org/2000/svg" xmlns:xlink="http://www.w3.org/1999/xlink" x="0px" y="0px"
	 width="24px" height="24px" viewBox="0 0 24 24" enable-background="new 0 0 24 24" xml:space="preserve">
<path d="M17.439,9.181c0-0.547-1.229-2.219-1.894-2.22c0.035-0.013,0.06-0.024,0.06-0.024l0.122-0.292v-0.25
	c0-0.198-0.15-0.344-0.333-0.38c-0.303-0.985-1.144-1.441-2.121-1.447H9.113C8.544,4.564,7.696,4.79,7.275,5.205
	C6.821,5.657,6.56,6.298,6.56,6.961v7.828c0,0.995,0.736,1.852,1.626,2.227v0.604c-0.208,0.038-0.37,0.093-0.496,0.158
	c-0.125,0.059-0.212,0.124-0.253,0.196c-0.043,0.056-0.064,0.11-0.074,0.165l-0.171,0.787c0,0.316,0.4,0.569,1.773,0.569
	c1.259,0,1.771-0.253,1.771-0.569l-0.168-0.775c-0.012-0.069-0.048-0.141-0.116-0.209c-0.048-0.062-0.129-0.116-0.24-0.168
	c-0.125-0.062-0.286-0.111-0.484-0.15v-0.416l3.573-0.037c0.972,0.01,1.796-0.382,2.103-1.355c0.197-0.028,0.353-0.182,0.353-0.388
	v-0.248c0-0.123-0.056-0.236-0.141-0.311h1.823C17.439,14.868,17.439,9.493,17.439,9.181z M9.999,15.021
	c-0.096,0.087-0.238,0.176-0.432,0.175l-0.022-0.002c0,0-0.086-0.003-0.12,0.002c-0.38-0.009-0.672-0.341-0.672-0.764V7.39
	c0-0.217,0.084-0.424,0.231-0.57c0.126-0.125,0.289-0.194,0.458-0.193l0.053,0.001c0,0,0.058-0.022,0.062-0.024
	C9.683,6.61,9.805,6.648,9.91,6.729c0.118,0.094,0.363,0.283,0.754,0.286c0,0,0.15,0.001,0.394,0.004v7.769l-0.392,0.001
	C10.252,14.789,10.075,14.952,9.999,15.021z"/>
</svg>
