<?xml version="1.0" encoding="utf-8"?>
<!-- Generator: Adobe Illustrator 14.0.0, SVG Export Plug-In . SVG Version: 6.00 Build 43363)  -->
<!DOCTYPE svg PUBLIC "-//W3C//DTD SVG 1.1//EN" "http://www.w3.org/Graphics/SVG/1.1/DTD/svg11.dtd">
<svg version="1.1" id="Calque_1" xmlns="http://www.w3.org/2000/svg" xmlns:xlink="http://www.w3.org/1999/xlink" x="0px" y="0px"
	 width="24px" height="24px" viewBox="0 0 24 24" enable-background="new 0 0 24 24" xml:space="preserve">
<path fill="#512DA8" d="M20.77,7.436c0-0.882-1.983-3.577-3.054-3.578c0.058-0.022,0.099-0.039,0.099-0.039l0.194-0.471V2.946
	c0-0.319-0.241-0.555-0.536-0.613C16.986,0.745,15.628,0.01,14.053,0H7.345C6.429-0.008,5.061,0.357,4.384,1.026
	C3.651,1.755,3.23,2.787,3.23,3.856v12.621c0,1.602,1.187,2.986,2.621,3.588v0.973c-0.335,0.064-0.597,0.152-0.799,0.258
	c-0.202,0.092-0.343,0.198-0.409,0.314c-0.07,0.089-0.103,0.178-0.119,0.267l-0.276,1.269c0,0.508,0.645,0.918,2.859,0.918
	c2.029,0,2.856-0.41,2.856-0.918l-0.272-1.252c-0.018-0.111-0.077-0.226-0.186-0.336c-0.078-0.099-0.208-0.188-0.388-0.269
	c-0.202-0.099-0.461-0.181-0.781-0.243v-0.671l5.762-0.058c1.565,0.013,2.894-0.619,3.389-2.187c0.316-0.046,0.57-0.294,0.57-0.624
	v-0.4c0-0.201-0.091-0.381-0.229-0.5h2.939C20.77,16.605,20.77,7.938,20.77,7.436z M8.774,16.852
	c-0.154,0.137-0.384,0.282-0.696,0.28l-0.035-0.001c0,0-0.14-0.006-0.194,0.002c-0.611-0.015-1.082-0.549-1.082-1.23V4.549
	c0-0.351,0.135-0.685,0.372-0.92c0.204-0.202,0.466-0.313,0.738-0.311l0.085,0.001c0,0,0.094-0.036,0.1-0.038
	c0.201,0.011,0.399,0.071,0.569,0.203C8.822,3.635,9.217,3.94,9.846,3.945c0.001,0,0.243,0.002,0.636,0.006v12.527L9.85,16.48
	C9.183,16.477,8.896,16.739,8.774,16.852z"/>
</svg>
