<?xml version="1.0" encoding="utf-8"?>
<!-- Generator: Adobe Illustrator 21.0.0, SVG Export Plug-In . SVG Version: 6.00 Build 0)  -->
<svg version="1.1" id="Calque_1" xmlns="http://www.w3.org/2000/svg" xmlns:xlink="http://www.w3.org/1999/xlink" x="0px" y="0px"
	 viewBox="0 0 24 24" style="enable-background:new 0 0 24 24;" xml:space="preserve">
<path d="M21.8,13.7H10.3c-0.9,0-1.7-0.8-1.7-1.7s0.8-1.7,1.7-1.7h11.6c0.9,0,1.7,0.8,1.7,1.7S22.8,13.7,21.8,13.7z"/>
<path d="M5.9,6.6c3,0,5.4,2.4,5.4,5.4s-2.4,5.4-5.4,5.4c-3,0-5.4-2.4-5.4-5.4S2.9,6.6,5.9,6.6z M5.9,14.1
	C7.1,14.1,8,13.2,8,12S7.1,9.9,5.9,9.9c-1.2,0-2.1,0.9-2.1,2.1S4.7,14.1,5.9,14.1z"/>
</svg>
