<?xml version="1.0" encoding="utf-8"?>
<!-- Generator: Adobe Illustrator 14.0.0, SVG Export Plug-In . SVG Version: 6.00 Build 43363)  -->
<!DOCTYPE svg PUBLIC "-//W3C//DTD SVG 1.1//EN" "http://www.w3.org/Graphics/SVG/1.1/DTD/svg11.dtd">
<svg version="1.1" id="Calque_1" xmlns="http://www.w3.org/2000/svg" xmlns:xlink="http://www.w3.org/1999/xlink" x="0px" y="0px"
	 width="24px" height="24px" viewBox="0 0 24 24" enable-background="new 0 0 24 24" xml:space="preserve">
<g>
	<path d="M15.521,5.281c-0.265-0.253-0.633-0.409-1.039-0.409h-0.644H9.518c-0.805,0-1.458,0.611-1.458,1.365
		c0,0.754,0.653,1.365,1.458,1.365h3.362h1.602c0.738,0,1.349-0.516,1.443-1.184c0.008-0.059,0.016-0.119,0.016-0.181
		C15.941,5.864,15.78,5.527,15.521,5.281z"/>
	<path d="M14.71,8.739c-0.803,0-1.527,0-2.254,0c-0.982,0-1.972,0-3.165,0c-2.076,0-2.445,3.049-2.445,4.4v3.3
		c0,1.35,1.404,2.688,2.652,2.688h5.004c1.134,0,2.393-1.104,2.614-2.321c0.022-0.121,0.037-0.244,0.037-0.367v-3.3
		C17.153,11.788,16.597,8.739,14.71,8.739z"/>
</g>
</svg>
