<?xml version="1.0" encoding="utf-8"?>
<!-- Generator: Adobe Illustrator 14.0.0, SVG Export Plug-In . SVG Version: 6.00 Build 43363)  -->
<!DOCTYPE svg PUBLIC "-//W3C//DTD SVG 1.1//EN" "http://www.w3.org/Graphics/SVG/1.1/DTD/svg11.dtd">
<svg version="1.1" id="Calque_1" xmlns="http://www.w3.org/2000/svg" xmlns:xlink="http://www.w3.org/1999/xlink" x="0px" y="0px"
	 width="24px" height="24px" viewBox="0 0 24 24" enable-background="new 0 0 24 24" xml:space="preserve">
<path fill="#512DA8" d="M16.668,3.6c-1.673,0-3.095,1.098-3.584,2.61H4.772c-0.639,0-1.156,0.518-1.156,1.156
	c0,0.639,0.518,1.156,1.156,1.156h8.312c0.489,1.513,1.911,2.61,3.584,2.61c2.075,0,3.766-1.689,3.766-3.766
	C20.434,5.289,18.743,3.6,16.668,3.6z M16.668,8.819c-0.803,0-1.454-0.652-1.454-1.454c0-0.802,0.651-1.454,1.454-1.454
	c0.802,0,1.453,0.652,1.453,1.454C18.121,8.167,17.47,8.819,16.668,8.819z"/>
<path fill="#512DA8" d="M4.771,17.79h8.313c0.489,1.513,1.91,2.61,3.583,2.61c0.748,0,1.472-0.219,2.092-0.634
	c0.531-0.355,0.673-1.073,0.318-1.604c-0.354-0.531-1.073-0.673-1.604-0.318c-0.238,0.159-0.517,0.243-0.807,0.243
	c-0.802,0-1.453-0.651-1.453-1.453s0.651-1.454,1.453-1.454c0.29,0,0.57,0.086,0.81,0.245c0.53,0.356,1.248,0.216,1.604-0.314
	c0.355-0.529,0.215-1.248-0.314-1.604c-0.622-0.418-1.347-0.639-2.099-0.639c-1.673,0-3.094,1.098-3.583,2.609H4.771
	c-0.638,0-1.155,0.518-1.155,1.156S4.133,17.79,4.771,17.79z"/>
</svg>
